
<svg width="32px" height="32px" viewBox="21 21 32 32" version="1.1" xmlns="http://www.w3.org/2000/svg" xmlns:xlink="http://www.w3.org/1999/xlink">
    <!-- Generator: Sketch 41.2 (35397) - http://www.bohemiancoding.com/sketch -->
    <desc>Created with Sketch.</desc>
    <defs></defs>
    <path d="M50.5935469,50.0369042 C50.0472302,50.8961983 48.4752577,52.0314264 47.0687296,51.9889366 C46.8003197,51.9809385 46.6753616,52.0174297 46.4064519,51.9889366 C42.481269,51.5735361 38.7020371,49.1546156 37.8208328,48.597749 C34.4314701,46.4557621 30.9826274,43.1325583 30.2378773,42.3922356 C29.4931272,41.6514131 25.3500174,37.1075017 24.4063341,35.1634674 C23.8995041,34.4006502 21.4268338,30.5085826 21.0109734,26.5870221 C20.9824829,26.3190863 21.0194705,26.1941162 21.0109734,25.9256805 C20.9684876,24.521017 22.1051062,22.9508932 22.9653176,22.4045241 C24.1689137,21.6407071 25.720893,20.9278778 26.2592123,21.0058592 C26.7180584,21.0723432 27.1119262,21.7511806 27.4608091,22.2140697 C28.4839658,23.5702448 30.4618021,27.1213941 30.816683,27.6847591 C31.171564,28.2476242 31.6459048,29.0024434 31.3924898,29.5298171 C31.2705308,29.7837562 30.5552708,31.1219357 30.2658679,31.5348367 C29.7520403,32.2681611 29.0517753,33.0679694 29.7925267,34.3591601 C30.4742979,35.5478753 33.50778,38.7231146 33.50778,38.7231146 L34.3140095,39.5284217 C34.7018794,39.898833 37.5079378,42.5776912 38.6255628,43.2175379 C39.9186289,43.9568608 40.7193602,43.2575283 41.4536138,42.7446512 C41.8669751,42.4552205 43.2065256,41.7408917 43.4609402,41.6189209 C43.9887631,41.3659815 44.7440097,41.8393681 45.3078205,42.1942831 C45.8716313,42.5486981 49.4269383,44.5242249 50.7849826,45.54648 C51.2483271,45.8948965 51.9275992,46.2883023 51.9940769,46.7466924 C52.0725506,47.2840637 51.3587901,48.8346922 50.5935469,50.0369042 L50.5935469,50.0369042 Z" id="phone" stroke="none" fill="#FFFFFF" fill-rule="evenodd"></path>
</svg>