
<svg width="44px" height="44px" viewBox="14 14 44 44" version="1.1" xmlns="http://www.w3.org/2000/svg" xmlns:xlink="http://www.w3.org/1999/xlink">
    <!-- Generator: Sketch 41.2 (35397) - http://www.bohemiancoding.com/sketch -->
    <desc>Created with Sketch.</desc>
    <defs></defs>
    <path d="M50.0935469,50.0369042 C49.5472302,50.8961983 47.9752577,52.0314264 46.5687296,51.9889366 C46.3003197,51.9809385 46.1753616,52.0174297 45.9064519,51.9889366 C41.981269,51.5735361 38.2020371,49.1546156 37.3208328,48.597749 C33.9314701,46.4557621 30.4826274,43.1325583 29.7378773,42.3922356 C28.9931272,41.6514131 24.8500174,37.1075017 23.9063341,35.1634674 C23.3995041,34.4006502 20.9268338,30.5085826 20.5109734,26.5870221 C20.4824829,26.3190863 20.5194705,26.1941162 20.5109734,25.9256805 C20.4684876,24.521017 21.6051062,22.9508932 22.4653176,22.4045241 C23.6689137,21.6407071 25.220893,20.9278778 25.7592123,21.0058592 C26.2180584,21.0723432 26.6119262,21.7511806 26.9608091,22.2140697 C27.9839658,23.5702448 29.9618021,27.1213941 30.316683,27.6847591 C30.671564,28.2476242 31.1459048,29.0024434 30.8924898,29.5298171 C30.7705308,29.7837562 30.0552708,31.1219357 29.7658679,31.5348367 C29.2520403,32.2681611 28.5517753,33.0679694 29.2925267,34.3591601 C29.9742979,35.5478753 33.00778,38.7231146 33.00778,38.7231146 L33.8140095,39.5284217 C34.2018794,39.898833 37.0079378,42.5776912 38.1255628,43.2175379 C39.4186289,43.9568608 40.2193602,43.2575283 40.9536138,42.7446512 C41.3669751,42.4552205 42.7065256,41.7408917 42.9609402,41.6189209 C43.4887631,41.3659815 44.2440097,41.8393681 44.8078205,42.1942831 C45.3716313,42.5486981 48.9269383,44.5242249 50.2849826,45.54648 C50.7483271,45.8948965 51.4275992,46.2883023 51.4940769,46.7466924 C51.5725506,47.2840637 50.8587901,48.8346922 50.0935469,50.0369042 L50.0935469,50.0369042 Z" id="phone" stroke="none" fill="#FFFFFF" fill-rule="evenodd" transform="translate(36.000000, 36.500000) rotate(-225.000000) translate(-36.000000, -36) "></path>
</svg>